# xmcd
#
# Track frame offsets:
#	150
#	15500
#	30648
#	45529
#	60207
#
# Disc length: 1010 seconds
#
# Revision: 0
# Processed by: cddbd v1.5.2PL0 Copyright (c) Steve Scherf et al.
# Submitted via: audiograbber 1.83.01
#
DISCID=2d03f005
DTITLE=Thomas Tillman - Thomas Tillman
DYEAR=2009
DGENRE=Country
TTITLE0=Taillights
TTITLE1=Married To The Spotlight
TTITLE2=Love Letters
TTITLE3=Let The Band Play
TTITLE4=Livin Free
EXTD=
EXTT0=
EXTT1=
EXTT2=
EXTT3=
EXTT4=
PLAYORDER=
